# xmcd
#
# Track frame offsets: 
#        150
#        15394
#        32502
#        50469
#        65352
#        85435
#        100850
#        114723
#        131585
#        145130
#        158568
#
# Disc length: 2269 seconds
#
# Revision: 0
# Processed by: cddbd v1.5.2PL0 Copyright (c) Steve Scherf et al.
# Submitted via: ExactAudioCopy v1.0b3
#
DISCID=8808db0b
DTITLE=Kenny 'Blues Boss' Wayne - Rollin' With The Blues Boss
DYEAR=2014
DGENRE=Blues
TTITLE0=Leavin' In The Morning
TTITLE1=You Bring The Jungle Out Of Me
TTITLE2=Hootenanny Boogie-Woogie
TTITLE3=Roadrunner
TTITLE4=Baby, It Ain't You (with Diunna Greenleaf)
TTITLE5=I Can't Believe It
TTITLE6=Two Sides (with Eric Bibb)
TTITLE7=Slow Down
TTITLE8=Ogopogo Boogie
TTITLE9=Keep On Rockin'
TTITLE10=Out Like A Bullet
EXTD=
EXTT0=
EXTT1=
EXTT2=
EXTT3=
EXTT4=
EXTT5=
EXTT6=
EXTT7=
EXTT8=
EXTT9=
EXTT10=
PLAYORDER=
